<svg xmlns="http://www.w3.org/2000/svg" viewBox="0 0 387 144"><defs><style>.cls-1{fill:#8b5e3c;}.cls-2{fill:#006838;}.cls-3{fill:#39b54a;}.cls-4{fill:#8dc63f;}</style></defs><g id="Layer_2" data-name="Layer 2"><g id="Layer_1-2" data-name="Layer 1"><rect class="cls-1" x="72" y="45" width="9" height="36"/><rect class="cls-1" x="333" y="63" width="9" height="36"/><rect class="cls-1" x="306" y="45" width="9" height="36"/><rect class="cls-1" x="90" y="54" width="9" height="36"/><path class="cls-2" d="M162,144h81a72,72,0,0,1,72-72c1,0,1.92,0,2.87.07a108,108,0,0,0-203.13-1.7A81,81,0,0,1,162,144Z"/><path class="cls-3" d="M114.74,70.37A81,81,0,0,0,0,144H162A81,81,0,0,0,114.74,70.37Z"/><path class="cls-4" d="M317.87,72.07C316.92,72,316,72,315,72a72,72,0,0,0-72,72H387A72,72,0,0,0,317.87,72.07Z"/><path class="cls-2" d="M117,33a12,12,0,0,0-12-12A12,12,0,0,0,93,9a11.88,11.88,0,0,0-6.08,1.68A12,12,0,0,0,63,12c0,.13,0,.26,0,.39A12,12,0,0,0,54,24h0a11.93,11.93,0,0,0,2.66,7.51A11.88,11.88,0,0,0,54,38.58h0A12,12,0,0,0,65.58,51a11.86,11.86,0,0,0,6.51-1.67A12,12,0,0,0,94.38,54h.25a12,12,0,1,0,19.71-13.5A11.92,11.92,0,0,0,117,33Z"/><path class="cls-2" d="M360,42a12,12,0,0,0-12-12,12,12,0,0,0-16.22-11.22A12,12,0,0,0,321,12a12,12,0,0,0-24,0c0,.13,0,.26,0,.39A12,12,0,0,0,288,24h0a11.93,11.93,0,0,0,2.66,7.51A11.88,11.88,0,0,0,288,38.58h0A12,12,0,0,0,310.38,45h.25a12.12,12.12,0,0,0,6.44,5.31A11.8,11.8,0,0,0,315,56.58h0A12,12,0,0,0,337.38,63h.25a12,12,0,1,0,19.71-13.5A11.92,11.92,0,0,0,360,42Z"/></g></g></svg>